<?xml version="1.0" standalone="no"?>
<!DOCTYPE svg PUBLIC "-//W3C//DTD SVG 20010904//EN"
 "http://www.w3.org/TR/2001/REC-SVG-20010904/DTD/svg10.dtd">
<svg version="1.0" xmlns="http://www.w3.org/2000/svg"
 width="700.000000pt" height="700.000000pt" viewBox="0 0 700.000000 700.000000"
 preserveAspectRatio="xMidYMid meet">
<metadata>
Created by potrace 1.11, written by Peter Selinger 2001-2013
</metadata>
<g transform="translate(0.000000,700.000000) scale(0.100000,-0.100000)"
fill="#000000" stroke="none">
<path d="M2113 6916 c-57 -18 -123 -58 -153 -92 -14 -16 -160 -202 -325 -414
-165 -212 -305 -392 -312 -400 -12 -15 -887 -1140 -930 -1196 -12 -16 -31 -40
-42 -54 -190 -238 -214 -281 -219 -385 -3 -58 14 -161 103 -605 58 -294 117
-587 130 -650 13 -63 27 -131 30 -150 3 -19 8 -42 10 -50 2 -8 7 -28 9 -45 3
-16 15 -75 26 -130 11 -55 23 -113 25 -130 3 -16 8 -41 10 -55 3 -14 7 -34 9
-45 3 -11 11 -54 20 -95 8 -41 17 -86 20 -100 3 -14 21 -104 40 -200 19 -96
37 -186 40 -200 47 -251 77 -377 102 -426 50 -99 93 -128 443 -291 174 -81
241 -113 336 -158 55 -26 141 -67 190 -90 50 -23 171 -81 270 -127 99 -47 225
-107 280 -133 117 -55 225 -106 350 -165 50 -23 205 -96 345 -162 140 -66 297
-140 349 -164 113 -54 168 -67 242 -60 61 6 79 13 226 82 54 25 134 63 178 84
44 21 134 63 200 95 66 32 152 72 190 90 39 18 122 57 185 88 178 85 327 156
415 197 144 67 248 117 380 180 120 57 342 163 590 280 341 161 378 184 428
272 24 41 49 117 61 183 3 17 21 100 41 185 20 85 38 169 41 185 3 17 10 46
15 65 5 19 41 177 80 350 103 453 157 695 229 1010 23 102 43 194 46 205 2 11
22 101 45 200 22 99 43 191 46 205 2 13 13 63 24 110 45 188 42 269 -15 362
-18 29 -96 136 -174 238 -78 102 -165 214 -192 250 -110 144 -212 276 -223
290 -7 8 -122 159 -257 335 -134 176 -247 322 -250 325 -3 3 -23 30 -45 60
-22 30 -42 57 -45 60 -4 3 -72 91 -151 195 -80 105 -187 244 -237 310 -112
147 -150 187 -205 219 -91 53 -1 49 -1257 61 -1569 15 -1723 15 -1767 1z
m2423 -1193 c1 -49 5 -277 9 -508 4 -231 9 -490 10 -575 7 -398 17 -933 20
-1110 2 -107 7 -373 10 -590 4 -217 8 -471 10 -565 2 -93 6 -352 10 -575 4
-223 8 -465 9 -537 2 -73 2 -133 1 -133 -3 0 -456 211 -600 280 -60 28 -126
58 -145 66 -29 12 -47 33 -95 116 -33 55 -62 106 -64 112 -2 6 -7 13 -10 16
-3 3 -11 14 -17 25 -27 49 -259 444 -279 475 -13 19 -48 78 -78 130 -48 85
-159 274 -208 356 l-19 31 -132 -23 c-73 -13 -155 -26 -183 -30 -27 -3 -52 -7
-55 -9 -3 -2 -27 -6 -55 -9 -27 -4 -57 -9 -65 -11 -8 -2 -33 -6 -55 -10 -22
-3 -94 -15 -160 -26 -66 -11 -133 -22 -150 -25 -16 -2 -55 -9 -85 -14 -30 -5
-70 -12 -87 -15 -58 -9 -85 -14 -241 -40 l-154 -26 -226 105 c-125 57 -294
136 -375 175 -82 39 -153 71 -157 71 -35 0 31 59 412 366 237 192 461 374 498
404 37 30 117 96 179 145 62 50 121 97 132 107 34 28 92 75 322 261 122 98
240 194 262 212 22 18 92 75 155 126 355 286 434 350 525 424 55 45 165 134
245 199 80 64 152 122 160 129 8 7 85 69 170 137 85 69 157 127 160 130 3 3
25 21 50 40 25 19 59 47 75 61 21 19 268 219 270 219 0 0 1 -39 1 -87z"/>
<path d="M3740 4193 c-36 -30 -99 -83 -141 -117 -112 -90 -403 -329 -409 -335
-3 -3 -50 -42 -105 -86 -55 -44 -106 -85 -113 -92 -7 -7 -34 -29 -60 -50 -26
-21 -52 -42 -58 -48 -6 -5 -97 -80 -202 -165 -104 -85 -189 -156 -187 -158 1
-1 26 3 56 8 30 6 70 13 89 16 19 2 42 6 50 9 8 2 31 7 50 10 33 5 290 50 335
59 44 8 92 16 130 22 22 3 72 12 110 19 53 10 73 11 82 2 6 -7 64 -104 129
-217 283 -492 325 -564 329 -569 4 -4 0 1707 -4 1742 -2 14 -17 5 -81 -50z"/>
</g>
</svg>
